<svg xmlns="http://www.w3.org/2000/svg" viewBox="0 0 1011.11 183.33"><defs><style>.cls-1{fill:#e98278;}.cls-1,.cls-2,.cls-3,.cls-4{stroke:#fff;stroke-miterlimit:10;stroke-width:3.33px;}.cls-2,.cls-5{fill:#f05d48;}.cls-3{fill:#ffbab9;}.cls-4{fill:#fd9a94;}.cls-5{font-size:119.1px;font-family:Montserrat-Bold, Montserrat;font-weight:700;}.cls-6{letter-spacing:-0.02em;}.cls-7{letter-spacing:-0.01em;}.cls-8{font-size:31.7px;font-family:Montserrat-Medium, Montserrat;font-weight:500;letter-spacing:0.2em;}.cls-9{letter-spacing:0.2em;}.cls-10{letter-spacing:0.18em;}.cls-11{letter-spacing:0.2em;}.cls-12{letter-spacing:0.19em;}</style></defs><g id="Layer_2" data-name="Layer 2"><g id="Layer_1-2" data-name="Layer 1"><polygon class="cls-1" points="153.11 1.67 183.11 91.67 153.11 91.67 123.11 1.67 153.11 1.67"/><polygon class="cls-1" points="123.11 1.67 153.11 91.67 123.11 91.67 93.11 1.67 123.11 1.67"/><polygon class="cls-1" points="123.11 91.67 93.11 91.67 63.11 1.67 93.11 1.67 123.11 91.67"/><polygon class="cls-2" points="63.11 1.67 3.11 91.67 33.11 91.67 93.11 1.67 63.11 1.67"/><polygon class="cls-2" points="93.11 1.67 33.11 91.67 63.11 91.67 123.11 1.67 93.11 1.67"/><polygon class="cls-2" points="123.11 1.67 63.11 91.67 93.11 91.67 153.11 1.67 123.11 1.67"/><polygon class="cls-3" points="33.11 181.67 3.11 91.67 33.11 91.67 63.11 181.67 33.11 181.67"/><polygon class="cls-3" points="63.11 181.67 33.11 91.67 63.11 91.67 93.11 181.67 63.11 181.67"/><polygon class="cls-3" points="63.11 91.67 93.11 91.67 123.11 181.67 93.11 181.67 63.11 91.67"/><polygon class="cls-4" points="123.11 181.67 183.11 91.67 153.11 91.67 93.11 181.67 123.11 181.67"/><polygon class="cls-4" points="93.11 181.67 153.11 91.67 123.11 91.67 63.11 181.67 93.11 181.67"/><polygon class="cls-4" points="63.11 181.67 123.11 91.67 93.11 91.67 33.11 181.67 63.11 181.67"/><text class="cls-5" transform="translate(219.11 109.67)">KIC<tspan class="cls-6" x="214.49" y="0">K</tspan><tspan x="300.84" y="0">S</tspan><tspan class="cls-7" x="376.82" y="0">ST</tspan><tspan x="524.03" y="0">ORE</tspan></text><text class="cls-8" transform="translate(219.11 154.67)">No 1 Onli<tspan class="cls-9" x="197.62" y="0">n</tspan><tspan x="225.64" y="0">e S</tspan><tspan class="cls-10" x="292.28" y="0">t</tspan><tspan class="cls-11" x="311.17" y="0">o</tspan><tspan class="cls-12" x="337.64" y="0">r</tspan><tspan x="356.6" y="0">e</tspan></text></g></g></svg>